<svg width="37" height="36" viewBox="0 0 37 36" fill="none" xmlns="http://www.w3.org/2000/svg">
<path d="M17.4453 5.34375H19.5547C19.7422 5.34375 19.8359 5.4375 19.8359 5.625V30.375C19.8359 30.5625 19.7422 30.6562 19.5547 30.6562H17.4453C17.2578 30.6562 17.1641 30.5625 17.1641 30.375V5.625C17.1641 5.4375 17.2578 5.34375 17.4453 5.34375Z" fill="white"/>
<path d="M6.6875 16.6641H30.3125C30.5 16.6641 30.5938 16.7578 30.5938 16.9453V19.0547C30.5938 19.2422 30.5 19.3359 30.3125 19.3359H6.6875C6.5 19.3359 6.40625 19.2422 6.40625 19.0547V16.9453C6.40625 16.7578 6.5 16.6641 6.6875 16.6641Z" fill="white"/>
</svg>
