<svg width="36" height="36" viewBox="0 0 36 36" fill="none" xmlns="http://www.w3.org/2000/svg">
<path d="M22.2188 31.2188H13.7812C13.6266 31.2188 13.5 31.3453 13.5 31.5V32.625C13.5 33.2473 14.0027 33.75 14.625 33.75H21.375C21.9973 33.75 22.5 33.2473 22.5 32.625V31.5C22.5 31.3453 22.3734 31.2188 22.2188 31.2188ZM18 2.25C11.6332 2.25 6.46875 7.41445 6.46875 13.7812C6.46875 18.0492 8.78906 21.7758 12.2344 23.7691V27.8438C12.2344 28.466 12.7371 28.9688 13.3594 28.9688H22.6406C23.2629 28.9688 23.7656 28.466 23.7656 27.8438V23.7691C27.2109 21.7758 29.5312 18.0492 29.5312 13.7812C29.5312 7.41445 24.3668 2.25 18 2.25ZM22.4965 21.5789L21.2344 22.3102V26.4375H14.7656V22.3102L13.5035 21.5789C10.7367 19.9793 9 17.0332 9 13.7812C9 8.81016 13.0289 4.78125 18 4.78125C22.9711 4.78125 27 8.81016 27 13.7812C27 17.0332 25.2633 19.9793 22.4965 21.5789Z" fill="#262626"/>
</svg>
