<svg width="36" height="36" viewBox="0 0 36 36" fill="none" xmlns="http://www.w3.org/2000/svg">
<path fill-rule="evenodd" clip-rule="evenodd" d="M11.0575 5.9293C12.8988 4.0537 15.3961 3 18 3C20.6039 3 23.1012 4.0537 24.9425 5.9293C26.7838 7.8049 27.8182 10.3488 27.8182 13.0013V16.7517C27.8182 18.3585 28.5019 19.3499 29.3521 20.3314C29.4504 20.4449 29.5584 20.5661 29.6714 20.6927C30.0133 21.0762 30.4 21.5098 30.6961 21.9321C31.1221 22.5395 31.5 23.3003 31.5 24.2527C31.5 25.3131 30.8938 26.1379 30.1645 26.7196C29.435 27.3014 28.446 27.7601 27.3065 28.1192C25.0148 28.8413 21.813 29.2533 18 29.2533C14.187 29.2533 10.9852 28.8413 8.69355 28.1192C7.55398 27.7601 6.56496 27.3014 5.83547 26.7196C5.10622 26.1379 4.5 25.3131 4.5 24.2527C4.5 23.3003 4.87794 22.5395 5.30388 21.9321C5.6 21.5098 5.98667 21.0762 6.32861 20.6927C6.44155 20.5661 6.54962 20.4449 6.64793 20.3314C7.49812 19.3499 8.18182 18.3585 8.18182 16.7517V13.0013C8.18182 10.3488 9.21623 7.8049 11.0575 5.9293ZM18 5.50031C16.047 5.50031 14.1741 6.29059 12.7931 7.69729C11.4122 9.10399 10.6364 11.0119 10.6364 13.0013V16.7517C10.6364 19.2705 9.47916 20.8419 8.48844 21.9857C8.32903 22.1697 8.18424 22.3321 8.05158 22.4809C7.74774 22.8217 7.50756 23.0911 7.30123 23.3854C7.03684 23.7624 6.95455 24.0174 6.95455 24.2527C6.95443 24.2584 6.95081 24.4336 7.34876 24.751C7.75066 25.0716 8.42614 25.4177 9.41895 25.7306C11.3921 26.3523 14.3267 26.753 18 26.753C21.6733 26.753 24.6079 26.3523 26.581 25.7306C27.5739 25.4177 28.2493 25.0716 28.6512 24.751C29.0492 24.4336 29.0456 24.2585 29.0455 24.2528C29.0455 24.0175 28.9632 23.7624 28.6988 23.3854C28.4924 23.0911 28.2523 22.8217 27.9484 22.4809C27.8158 22.3321 27.671 22.1697 27.5116 21.9857C26.5208 20.8419 25.3636 19.2705 25.3636 16.7517V13.0013C25.3636 11.0119 24.5878 9.10399 23.2069 7.69729C21.8259 6.29059 19.953 5.50031 18 5.50031Z" fill="#262626"/>
<path d="M18 30.5034C16.7592 30.5034 15.5933 30.4609 14.4961 30.3784C14.73 31.1385 15.196 31.8027 15.8263 32.2742C16.4565 32.7457 17.218 33 18 33C18.782 33 19.5435 32.7457 20.1737 32.2742C20.804 31.8027 21.27 31.1385 21.5039 30.3784C20.4067 30.4609 19.2408 30.5034 18 30.5034Z" fill="#262626"/>
</svg>
