<svg width="36" height="36" viewBox="0 0 36 36" fill="none" xmlns="http://www.w3.org/2000/svg">
<path d="M30.75 16.95V10.56C30.75 4.51501 29.34 3 23.67 3H12.33C6.66 3 5.25 4.51501 5.25 10.56V27.45C5.25 31.44 7.44002 32.385 10.095 29.535L10.11 29.52C11.34 28.215 13.215 28.32 14.28 29.745L15.795 31.77" stroke="#292D32" stroke-width="2" stroke-linecap="round" stroke-linejoin="round"/>
<path d="M12 10.5H24" stroke="#292D32" stroke-width="2" stroke-linecap="round" stroke-linejoin="round"/>
<path d="M13.5 16.5H22.5" stroke="#292D32" stroke-width="2" stroke-linecap="round" stroke-linejoin="round"/>
<path d="M27.3165 22.1554L22.0065 27.4654C21.7965 27.6754 21.6015 28.0654 21.5565 28.3504L21.2715 30.3754C21.1665 31.1104 21.6765 31.6204 22.4115 31.5154L24.4365 31.2304C24.7215 31.1854 25.1265 30.9904 25.3215 30.7804L30.6315 25.4704C31.5465 24.5554 31.9815 23.4904 30.6315 22.1404C29.2965 20.8054 28.2315 21.2404 27.3165 22.1554Z" stroke="#292D32" stroke-width="2" stroke-miterlimit="10" stroke-linecap="round" stroke-linejoin="round"/>
<path d="M26.5488 22.9204C26.9988 24.5404 28.2588 25.8004 29.8788 26.2504" stroke="#292D32" stroke-width="1.5" stroke-miterlimit="10" stroke-linecap="round" stroke-linejoin="round"/>
</svg>
